<?xml version="1.0" encoding="utf-8"?>
<!-- Generator: Adobe Illustrator 19.2.0, SVG Export Plug-In . SVG Version: 6.00 Build 0)  -->
<svg version="1.1" id="Layer_1" xmlns="http://www.w3.org/2000/svg" xmlns:xlink="http://www.w3.org/1999/xlink" x="0px" y="0px"
	 viewBox="0 0 265 50" style="enable-background:new 0 0 265 50;" xml:space="preserve">
<style type="text/css">
	.st0{fill:#F27037;}
	.st1{fill:#FFFFFF;}
</style>
<g>
	<g>
		<path class="st0" d="M158.2,10.4c0.4,0.5,0.6,1,0.5,1.6c0,0.6-0.2,1.2-0.6,1.7c-0.3,0.4-0.8,0.8-1.5,1.2c-0.7,0.3-1.4,0.6-2.1,0.8
			c-0.5,0.1-0.9,0.2-1.5,0.3c1.6,1,2.4,2.2,2.4,3.6c0,1.1-0.3,2.1-1.1,3c-0.7,0.9-1.8,1.5-3.2,2c-1.4,0.4-2.9,0.5-4.5,0.3
			c-2.1-0.3-3.7-1-4.8-2.2c-1.1-1.2-1.6-2.6-1.3-4.1c0.1-0.5,0.3-1,0.5-1.5c0.3-0.4,0.6-0.8,0.9-1.1c0.3-0.3,0.7-0.5,1.1-0.7
			c0.4-0.2,0.8-0.4,1.1-0.5c0.3-0.1,0.6-0.2,0.9-0.2c-0.8-0.4-1.4-1-1.8-1.6c-0.4-0.7-0.4-1.4-0.1-2.2c0.2-0.6,0.6-1,1.1-1.3
			c0.5-0.3,1.1-0.5,1.8-0.5c0.9-0.1,1.7,0.1,2.5,0.5c0.7,0.3,1.1,0.7,1.4,1.1c0.3,0.4,0.3,0.9,0.1,1.4c-0.2,0.6-0.7,0.8-1.4,0.7
			c-0.3-0.1-0.6-0.2-0.8-0.5c-0.2-0.3-0.2-0.5-0.1-0.9c0,0,0-0.1,0.1-0.3c0-0.1,0.1-0.2,0.1-0.3c0-0.1,0-0.2,0.1-0.3
			c0-0.1,0-0.2,0-0.3c0-0.1,0-0.2,0-0.2c0-0.1-0.1-0.2-0.1-0.3c-0.1-0.1-0.1-0.1-0.2-0.2c-0.2-0.1-0.5-0.2-0.8-0.2
			c-0.3,0-0.6,0.1-1,0.3c-0.5,0.3-0.9,0.7-1.1,1.2c-0.1,0.2-0.2,0.5-0.2,0.9c0,0.3,0,0.7,0.2,1.2c0.2,0.5,0.4,0.9,0.9,1.2
			c0.1,0.1,0.2,0.1,0.3,0.2c0.1,0,0.1,0,0.2,0c0,0,0.1,0,0.3,0c0.1,0,0.3,0,0.4,0c0.2,0,0.3,0,0.4,0.1c0.1,0.1,0.2,0.1,0.1,0.2
			c0,0.1-0.1,0.2-0.2,0.3c-0.1,0.1-0.2,0.1-0.4,0.1c-0.1,0-0.2,0-0.3-0.1c-0.1,0-0.2,0-0.2,0c0,0-0.1,0-0.3,0c-0.3,0-0.6,0.1-1,0.3
			c-0.3,0.1-0.7,0.3-1.1,0.5c-0.4,0.2-0.8,0.5-1.1,0.9c-0.3,0.4-0.5,0.9-0.6,1.4c-0.1,0.5-0.1,1.1,0.1,1.6c0.2,0.5,0.4,1,0.8,1.5
			c0.4,0.5,1,0.9,1.7,1.3c0.7,0.4,1.6,0.6,2.6,0.7c1.3,0.2,2.5,0.1,3.6-0.1c1.1-0.3,2-0.7,2.7-1.4c0.7-0.6,1-1.4,1-2.3
			c0-0.5-0.2-1-0.5-1.5c-0.3-0.5-0.6-0.9-0.9-1.1c-0.3-0.3-0.7-0.5-1-0.7c-0.3,0.1-0.9,0.2-1.8,0.5c-1.1,0.3-1.9,0.7-2.3,1.2
			c-0.5,0.5-0.7,1-0.7,1.6c0,0.6,0.2,1,0.5,1.4c0.2,0.2,0.4,0.3,0.7,0.4c0.3,0.1,0.6,0.1,1,0c0.3-0.1,0.4-0.2,0.5-0.3
			c0.1-0.2,0.1-0.4,0-0.7c0-0.3,0-0.5,0-0.6c0.1-0.4,0.2-0.6,0.4-0.8c0.2-0.2,0.5-0.3,0.8-0.2c0.3,0,0.6,0.2,0.8,0.4
			c0.2,0.2,0.3,0.4,0.3,0.7c0,0.5-0.2,0.9-0.6,1.3c-0.4,0.3-1,0.6-1.7,0.7c-0.6,0.1-1.3,0.1-1.9-0.1c-0.6-0.2-1.1-0.5-1.5-0.9
			c-0.4-0.5-0.5-1-0.5-1.6c0-0.6,0.2-1.2,0.6-1.7c0.6-0.9,1.8-1.5,3.3-2c0.4-0.1,1.1-0.3,2.2-0.5c1.1-0.2,2-0.5,2.6-0.6
			c0.8-0.2,1.4-0.6,1.9-1c0.5-0.5,0.7-1,0.7-1.6c0-0.6-0.2-1-0.6-1.4c-0.2-0.2-0.4-0.3-0.7-0.4c-0.3-0.1-0.6-0.1-1,0
			c-0.3,0-0.4,0.2-0.5,0.3c-0.1,0.1-0.1,0.4,0,0.7c0,0.3,0,0.5,0,0.6c-0.1,0.4-0.2,0.6-0.4,0.8c-0.2,0.2-0.5,0.3-0.8,0.2
			c-0.7-0.1-1.1-0.5-1.1-1.1c0-0.5,0.2-0.9,0.6-1.3c0.4-0.3,1-0.6,1.7-0.7c0.2,0,0.5-0.1,0.8-0.1C156.8,9.4,157.6,9.7,158.2,10.4z"
			/>
	</g>
	<g>
		<g>
			<g>
				<path class="st1" d="M52.1,9.1c0.9,0.1,1.8,0.3,2.7,0.6c0.1,0,0.3,0.1,0.5,0.2c0.2,0.1,0.3,0.2,0.4,0.2c0.1,0,0.2,0.1,0.3,0.1
					c0.1,0,0.2,0,0.3-0.1c0.1-0.1,0.1-0.2,0.1-0.4c0-0.2,0-0.3,0-0.4H57l0.2,4.5h-0.6c-0.1-0.7-0.4-1.3-0.7-1.8
					c-0.3-0.5-0.7-0.9-1.3-1.3c-0.5-0.4-1.2-0.6-2.1-0.7c-0.8-0.1-1.6-0.1-2.4,0.1c-0.8,0.2-1.4,0.6-1.7,1.1
					c-0.3,0.4-0.4,0.9-0.3,1.5c0.1,0.5,0.3,0.9,0.7,1.3c0.4,0.3,1,0.7,1.8,1c0.8,0.3,1.6,0.5,2.3,0.7c0.8,0.2,1.5,0.5,2.3,0.8
					c0.8,0.4,1.5,0.8,2,1.3c0.5,0.4,0.8,1,1,1.8c0.2,0.7,0.2,1.5,0,2.3c-0.2,0.8-0.6,1.4-1.2,2c-0.6,0.5-1.4,0.9-2.3,1.1
					c-0.9,0.2-1.8,0.3-2.9,0.1c-1.1-0.1-2.1-0.4-3.1-0.9c0,0-0.1,0-0.1-0.1c-0.3-0.1-0.5-0.2-0.7-0.3c-0.2-0.1-0.3-0.1-0.5-0.1
					c-0.1,0-0.2,0-0.3,0.1c-0.1,0.1-0.1,0.2-0.1,0.4c0,0.1,0,0.3,0,0.3h-0.6l0-4.6H47c0.2,0.8,0.6,1.5,1.2,2.1
					c0.6,0.7,1.4,1.2,2.4,1.6c0.9,0.4,1.9,0.5,2.9,0.4c1-0.1,1.8-0.5,2.4-1.2c0.4-0.4,0.6-1,0.6-1.6c0-0.7-0.2-1.2-0.6-1.7
					c-0.3-0.4-0.8-0.7-1.3-0.9c-0.5-0.3-1.1-0.5-1.7-0.7c-0.6-0.2-1.2-0.3-1.8-0.5c-0.6-0.2-1.2-0.4-1.9-0.7c-0.6-0.3-1.2-0.7-1.7-1
					c-0.4-0.4-0.8-0.8-1-1.4c-0.2-0.5-0.3-1-0.2-1.5c0-0.5,0.1-0.9,0.3-1.3c0.2-0.4,0.4-0.8,0.6-1C48.3,9.4,49.9,8.9,52.1,9.1z"/>
				<path class="st1" d="M72.6,9.5l0.3,3.8h-0.6c0-0.1,0-0.1,0-0.2c-0.1-0.8-0.4-1.4-0.8-1.9c-0.4-0.4-0.9-0.7-1.6-0.7h-0.5h-2.3
					v12.5c0,0.4,0.1,0.6,0.3,0.8c0.2,0.1,0.5,0.3,0.9,0.3c0,0,0.2,0,0.5,0v0.6h-5.7v-0.6c0.3,0,0.5,0,0.5,0c0.5-0.1,0.8-0.2,1-0.3
					c0.2-0.1,0.3-0.4,0.3-0.8V10.5h-2.6H62c-1.2,0-1.8,0.9-2.1,2.4c0,0,0,0.1,0,0.1c0,0,0,0.1,0,0.1c0,0,0,0.1,0,0.1h-0.6l0.3-3.8
					H72.6z"/>
				<path class="st1" d="M79.4,9.5c1,0,1.9,0.1,2.7,0.4c0.8,0.3,1.4,0.6,1.8,1c0.4,0.4,0.7,0.9,0.9,1.4c0.2,0.5,0.3,1,0.2,1.4
					c-0.1,0.9-0.5,1.7-1.2,2.4c-0.7,0.7-1.8,1.1-3.2,1.3c0.3,0.3,0.8,0.9,1.6,2c0.9,1,1.5,1.8,2,2.3c0.6,0.7,1.1,1.2,1.7,1.7
					c0.5,0.4,1.1,0.6,1.8,0.7v0.6h-5.7V24c0.3,0,0.5-0.1,0.7-0.2c0.2-0.1,0.3-0.2,0.3-0.4c0-0.2-0.1-0.4-0.4-0.8
					c-0.1-0.1-0.3-0.4-0.8-0.9c-0.1-0.1-0.3-0.4-0.6-0.7c-0.3-0.3-0.6-0.8-1.1-1.3c-0.4-0.5-0.8-0.9-1.1-1.2c0,0,0-0.1-0.1-0.1
					c0,0,0,0,0,0c0,0,0,0-0.1-0.1c0-0.1-0.1-0.1-0.2-0.2c-0.3-0.3-0.7-0.5-1.3-0.4v5.3c0,0.3,0.1,0.5,0.2,0.7
					c0.1,0.1,0.3,0.2,0.5,0.3c0.2,0,0.4,0.1,0.6,0.1c0.1,0,0.2,0,0.5,0v0.6H77h-3.4v-0.6c0.3,0,0.5,0,0.5,0c0.5-0.1,0.8-0.2,1-0.3
					c0.2-0.1,0.3-0.4,0.3-0.8V11.2c0-0.4-0.1-0.7-0.3-0.8c-0.2-0.2-0.5-0.3-1-0.3c0,0-0.2,0-0.5,0V9.5H79.4z M77.5,16.7h1.9
					c1,0,1.8-0.3,2.5-0.9c0.6-0.6,1-1.3,1-2c0-0.4-0.1-0.7-0.2-1.1c-0.1-0.4-0.3-0.7-0.5-1c-0.2-0.3-0.5-0.6-0.9-0.8
					c-0.4-0.2-0.8-0.3-1.3-0.3h-2.4V16.7z"/>
				<path class="st1" d="M97.3,9.5l5.1,11.5c0.1,0.3,0.2,0.5,0.3,0.6c0.1,0.1,0.1,0.3,0.3,0.5c0.1,0.3,0.2,0.4,0.3,0.6
					c0.1,0.1,0.2,0.3,0.4,0.5c0.2,0.2,0.3,0.3,0.4,0.4c0.1,0.1,0.3,0.2,0.5,0.3c0.2,0.1,0.4,0.1,0.6,0.2v0.6H104h-2.2h-1.6v-0.6
					c0.3,0,0.5-0.1,0.7-0.2c0.2-0.1,0.3-0.3,0.3-0.4c0-0.1,0-0.2,0-0.2c-0.1-0.4-0.2-0.6-0.3-0.8c-0.9-2-1.4-3.2-1.5-3.5h-6.1
					l-1.9,4.3c-0.1,0.1-0.1,0.2-0.1,0.3c0,0.2,0.1,0.3,0.3,0.5c0.2,0.1,0.4,0.2,0.7,0.2v0.6h-3.9v-0.6c0.2,0,0.3-0.1,0.5-0.2
					c0.2-0.1,0.3-0.1,0.4-0.2c0.1-0.1,0.2-0.1,0.4-0.3c0.1-0.1,0.2-0.2,0.3-0.3c0.1-0.1,0.2-0.2,0.3-0.3c0.1-0.2,0.2-0.3,0.2-0.4
					c0.1-0.1,0.1-0.2,0.2-0.4c0.1-0.2,0.2-0.3,0.2-0.4c0-0.1,0.1-0.2,0.2-0.4c0.1-0.2,0.2-0.4,0.2-0.4c0.3-0.8,1-2.1,1.9-4.1
					c0.9-2,1.6-3.6,2.1-4.7c0.5-1.1,0.8-2,1-2.5H97.3z M93.6,17.9h5.2c-0.9-2-1.7-3.9-2.6-5.9C95.8,13,94.9,15,93.6,17.9z"/>
				<path class="st1" d="M106.7,9.5c0.1,0,0.3,0,0.5,0c0.2,0,0.4,0,0.6,0c0.2,0,0.7,0,1.6,0c0.8,0,1.9,0,3.1,0
					c1.3,0,2.2,0.1,2.8,0.3c1.3,0.4,2.5,1,3.4,2c1,1,1.6,2.1,2,3.5c0.5,1.9,0.2,3.8-0.8,5.5c-1,1.7-2.5,2.9-4.4,3.5
					c-0.5,0.1-1.5,0.3-3.1,0.4h-6.8v-0.6c0.3,0,0.5,0,0.5,0c0.5-0.1,0.8-0.2,1-0.3c0.2-0.1,0.3-0.4,0.3-0.8V11.2
					c0-0.4-0.1-0.7-0.3-0.8c-0.2-0.2-0.5-0.3-0.9-0.3c0,0-0.2,0-0.5,0V9.5C106.3,9.5,106.6,9.5,106.7,9.5z M109.6,20.1v1v1v1.4h2.7
					c1.4,0,2.4-0.1,2.9-0.4c1.1-0.5,1.9-1.4,2.6-2.7c0.6-1.3,0.9-2.6,0.8-4.1c-0.1-1.3-0.4-2.4-1-3.4c-0.6-1-1.3-1.7-2.3-2.1
					c-0.5-0.3-1.5-0.4-3-0.4h-2.7V20.1z"/>
				<path class="st1" d="M129.5,9.5l5.1,11.5c0.1,0.3,0.2,0.5,0.3,0.6c0.1,0.1,0.1,0.3,0.3,0.5c0.1,0.3,0.2,0.4,0.3,0.6
					c0.1,0.1,0.2,0.3,0.4,0.5c0.2,0.2,0.3,0.3,0.4,0.4c0.1,0.1,0.3,0.2,0.5,0.3c0.2,0.1,0.4,0.1,0.6,0.2v0.6h-1.1H134h-1.6v-0.6
					c0.3,0,0.5-0.1,0.7-0.2c0.2-0.1,0.3-0.3,0.3-0.4c0-0.1,0-0.2,0-0.2c-0.1-0.4-0.2-0.6-0.3-0.8c-0.9-2-1.4-3.2-1.5-3.5h-6.1
					l-1.9,4.3c-0.1,0.1-0.1,0.2-0.1,0.3c0,0.2,0.1,0.3,0.3,0.5c0.2,0.1,0.4,0.2,0.7,0.2v0.6h-3.9v-0.6c0.2,0,0.3-0.1,0.5-0.2
					c0.2-0.1,0.3-0.1,0.4-0.2c0.1-0.1,0.2-0.1,0.4-0.3c0.1-0.1,0.2-0.2,0.3-0.3c0.1-0.1,0.2-0.2,0.3-0.3c0.1-0.2,0.2-0.3,0.2-0.4
					c0.1-0.1,0.1-0.2,0.2-0.4c0.1-0.2,0.2-0.3,0.2-0.4c0-0.1,0.1-0.2,0.2-0.4c0.1-0.2,0.2-0.4,0.2-0.4c0.3-0.8,1-2.1,1.9-4.1
					c0.9-2,1.6-3.6,2.1-4.7c0.5-1.1,0.8-2,1-2.5H129.5z M125.8,17.9h5.2c-0.9-2-1.7-3.9-2.6-5.9C128,13,127.1,15,125.8,17.9z"/>
			</g>
			<g>
				<path class="st1" d="M34.2,7h6.1h3.4l0.3,4.4h-0.7c0-0.1,0-0.1,0-0.2c-0.1-0.9-0.4-1.7-0.9-2.2c-0.5-0.5-1.1-0.8-1.8-0.8h-0.6
					h-5.8v6.2h4.8c1-0.1,1.5-0.6,1.6-1.5c0-0.1,0-0.3,0-0.6h0.6v5.3h-0.6c0-0.3,0-0.5,0-0.6c-0.1-0.9-0.6-1.4-1.6-1.5h-4.8v7.8h6.8
					h0.6c1.4-0.1,2.2-1,2.4-2.8c0-0.2,0-0.3,0-0.4h0.7v4.4h-3.7h-6.8h-4.5V24c0.3,0,0.5,0,0.6,0c0.5-0.1,0.9-0.2,1.1-0.4
					c0.2-0.2,0.4-0.5,0.4-0.9V9c0-0.4-0.2-0.7-0.4-0.9c-0.2-0.2-0.6-0.3-1.1-0.4c0,0-0.2,0-0.6,0V7H34.2z"/>
			</g>
		</g>
		<g>
			<g>
				<path class="st1" d="M186.2,9.5c1,0,1.9,0.1,2.7,0.4c0.8,0.3,1.4,0.6,1.8,1c0.4,0.4,0.7,0.9,0.9,1.4c0.2,0.5,0.3,1,0.2,1.4
					c-0.1,0.9-0.5,1.7-1.2,2.4c-0.7,0.7-1.8,1.1-3.2,1.3c0.3,0.3,0.8,0.9,1.6,2c0.9,1,1.5,1.8,2,2.3c0.6,0.7,1.1,1.2,1.7,1.7
					c0.5,0.4,1.1,0.6,1.8,0.7v0.6h-5.7V24c0.3,0,0.5-0.1,0.7-0.2c0.2-0.1,0.3-0.2,0.3-0.4c0-0.2-0.1-0.4-0.4-0.8
					c-0.1-0.1-0.3-0.4-0.8-0.9c-0.1-0.1-0.3-0.4-0.6-0.7c-0.3-0.3-0.6-0.8-1.1-1.3c-0.4-0.5-0.8-0.9-1.1-1.2c0,0,0-0.1-0.1-0.1
					c0,0,0,0,0,0c0,0,0,0-0.1-0.1c0-0.1-0.1-0.1-0.2-0.2c-0.3-0.3-0.7-0.5-1.3-0.4v5.3c0,0.3,0.1,0.5,0.2,0.7
					c0.1,0.1,0.3,0.2,0.5,0.3c0.2,0,0.4,0.1,0.6,0.1c0.1,0,0.2,0,0.5,0v0.6h-2.3h-3.4v-0.6c0.3,0,0.5,0,0.5,0c0.5-0.1,0.8-0.2,1-0.3
					c0.2-0.1,0.3-0.4,0.3-0.8V11.2c0-0.4-0.1-0.7-0.3-0.8c-0.2-0.2-0.5-0.3-1-0.3c0,0-0.2,0-0.5,0V9.5H186.2z M184.2,16.7h1.9
					c1,0,1.8-0.3,2.5-0.9c0.6-0.6,1-1.3,1-2c0-0.4-0.1-0.7-0.2-1.1c-0.1-0.4-0.3-0.7-0.5-1c-0.2-0.3-0.5-0.6-0.9-0.8
					c-0.4-0.2-0.8-0.3-1.3-0.3h-2.4V16.7z"/>
				<path class="st1" d="M208.2,11.4c0.7,0.7,1.3,1.6,1.7,2.6c0.4,1,0.7,2,0.6,3.1c0,1.1-0.2,2.1-0.7,3.1c-0.4,1-1,1.8-1.7,2.6
					c-0.7,0.7-1.6,1.3-2.6,1.7c-1,0.4-2.1,0.6-3.2,0.6c-1.1,0-2.2-0.2-3.2-0.6c-1-0.4-1.9-1-2.6-1.7c-0.7-0.7-1.3-1.6-1.7-2.6
					c-0.4-1-0.6-2-0.6-3.1c0-1.1,0.2-2.1,0.7-3.1c0.4-1,1-1.9,1.7-2.6c0.7-0.7,1.6-1.3,2.6-1.7c1-0.4,2.1-0.6,3.2-0.6
					c1.1,0,2.2,0.2,3.2,0.6C206.6,10.1,207.5,10.7,208.2,11.4z M201.2,10.1c-1.5,0.2-2.8,1-3.7,2.5c-0.9,1.5-1.2,3.2-0.8,5.1
					c0.2,1.3,0.7,2.4,1.4,3.4c0.7,1,1.5,1.8,2.5,2.3c1,0.5,2,0.7,3,0.6c1-0.1,1.9-0.5,2.7-1.3c0.8-0.7,1.3-1.7,1.6-2.8
					c0.3-1.1,0.4-2.3,0.2-3.6c-0.2-1.2-0.6-2.3-1.3-3.2c-0.6-1-1.4-1.7-2.3-2.3c-0.9-0.6-1.8-0.8-2.7-0.8
					C201.5,10,201.3,10,201.2,10.1z"/>
				<path class="st1" d="M215,9.5V10c-0.3,0-0.5,0.1-0.7,0.2c-0.2,0.1-0.3,0.3-0.3,0.5c0,0,0,0.1,0,0.2c0.1,0.2,0.2,0.5,0.3,0.9
					c0.1,0.1,0.1,0.2,0.1,0.3c2.4,6.5,3.6,9.8,3.6,9.8l4.5-12.2h1.4l4.4,12l3.5-9.5L232,12c0-0.1,0.1-0.2,0.1-0.3
					c0.1-0.1,0.1-0.3,0.2-0.4c0.1-0.1,0.1-0.3,0.1-0.4c0-0.1,0-0.1,0-0.2c0-0.2-0.1-0.3-0.3-0.5c-0.2-0.1-0.4-0.2-0.7-0.2V9.5h4V10
					c-0.4,0-0.7,0.1-1,0.4c-0.3,0.2-0.6,0.5-0.8,0.8c-0.2,0.3-0.4,0.7-0.6,1c-0.1,0.3-0.3,0.7-0.4,1.1l-4.2,11.4h-1h0l-4.6-12.5
					l-4.6,12.5h0h0H217l-3.8-10.4c-0.1-0.3-0.2-0.6-0.3-0.8c-0.1-0.2-0.2-0.5-0.3-0.8c-0.1-0.3-0.3-0.6-0.4-0.8
					c-0.1-0.2-0.2-0.4-0.4-0.7c-0.2-0.3-0.3-0.5-0.5-0.6c-0.2-0.1-0.4-0.3-0.6-0.4c-0.2-0.1-0.4-0.2-0.7-0.2V9.5H215z"/>
			</g>
			<g>
				<path class="st1" d="M177.6,7.2l0.3,5.2h-0.7c0,0,0-0.2-0.1-0.4c-0.2-0.6-0.5-1.2-1-1.9c-0.4-0.7-0.9-1.2-1.5-1.5
					c-1.3-0.9-2.8-1.2-4.6-0.9c-1.2,0.2-2.2,0.7-3,1.5c-0.9,0.8-1.5,1.9-1.8,3.2c-0.4,1.3-0.4,2.7-0.2,4.1c0.4,2.2,1.3,3.9,2.7,5.2
					c1.4,1.3,3.1,2,5.2,2.2c1,0.1,2.1,0,3.3-0.3c1.2-0.3,2-0.6,2.6-1.1l0.7,0.9c-0.9,0.6-2.1,1-3.5,1.4c-1.4,0.3-2.9,0.4-4.4,0.3
					c-1.2-0.1-2.3-0.4-3.5-0.9c-1.1-0.5-2.1-1.1-3-1.8c-0.9-0.8-1.6-1.7-2.2-2.8c-0.5-1.1-0.8-2.4-0.8-3.7c0-1.8,0.4-3.5,1.3-4.9
					c0.9-1.4,2-2.5,3.4-3.3c1.4-0.8,3-1.1,4.8-1.1c1.1,0,2.2,0.3,3.4,0.8c0.2,0.1,0.4,0.2,0.6,0.3c0.2,0.1,0.4,0.2,0.6,0.3
					c0.2,0.1,0.3,0.1,0.4,0.2c0.2,0,0.3,0,0.3-0.1c0.1-0.1,0.1-0.2,0.1-0.5c0-0.2,0-0.3,0-0.4H177.6z"/>
			</g>
		</g>
		<g>
			<g>
				<path class="st1" d="M96.1,43.3l2.9-7.7h1.1l3.1,7.7H102l-0.9-2.3H98l-0.8,2.3H96.1z M98.3,40.2h2.6l-0.8-2.1
					c-0.2-0.6-0.4-1.2-0.5-1.6c-0.1,0.5-0.2,1-0.4,1.5L98.3,40.2z"/>
				<path class="st1" d="M105.8,43.3v-7.7h2.8c0.6,0,1,0.1,1.4,0.2c0.3,0.2,0.6,0.4,0.8,0.7c0.2,0.3,0.3,0.7,0.3,1
					c0,0.3-0.1,0.6-0.3,0.9c-0.2,0.3-0.4,0.5-0.8,0.7c0.5,0.1,0.8,0.4,1,0.7s0.4,0.7,0.4,1.2c0,0.4-0.1,0.7-0.2,1
					c-0.1,0.3-0.3,0.5-0.6,0.7s-0.5,0.3-0.8,0.4c-0.3,0.1-0.7,0.1-1.2,0.1H105.8z M106.8,38.9h1.6c0.4,0,0.8,0,0.9-0.1
					c0.3-0.1,0.4-0.2,0.6-0.4c0.1-0.2,0.2-0.4,0.2-0.7c0-0.3-0.1-0.5-0.2-0.7c-0.1-0.2-0.3-0.3-0.5-0.4c-0.2-0.1-0.6-0.1-1.1-0.1
					h-1.5V38.9z M106.8,42.4h1.9c0.3,0,0.5,0,0.7,0c0.2,0,0.4-0.1,0.6-0.2c0.2-0.1,0.3-0.2,0.4-0.4c0.1-0.2,0.1-0.4,0.1-0.6
					c0-0.3-0.1-0.5-0.2-0.7c-0.1-0.2-0.3-0.4-0.6-0.4c-0.3-0.1-0.6-0.1-1.1-0.1h-1.7V42.4z"/>
				<path class="st1" d="M114.4,39.6c0-1.3,0.3-2.3,1-3c0.7-0.7,1.5-1.1,2.6-1.1c0.7,0,1.3,0.2,1.9,0.5c0.6,0.3,1,0.8,1.3,1.4
					s0.4,1.3,0.4,2.1c0,0.8-0.2,1.5-0.5,2.1c-0.3,0.6-0.7,1.1-1.3,1.4c-0.6,0.3-1.2,0.5-1.8,0.5c-0.7,0-1.3-0.2-1.9-0.5
					c-0.6-0.3-1-0.8-1.3-1.4C114.6,40.9,114.4,40.3,114.4,39.6z M115.4,39.6c0,0.9,0.2,1.7,0.7,2.2c0.5,0.5,1.1,0.8,1.8,0.8
					c0.7,0,1.4-0.3,1.9-0.8c0.5-0.5,0.7-1.3,0.7-2.3c0-0.6-0.1-1.2-0.3-1.6c-0.2-0.5-0.5-0.8-0.9-1.1c-0.4-0.3-0.8-0.4-1.3-0.4
					c-0.7,0-1.3,0.2-1.8,0.7C115.7,37.6,115.4,38.5,115.4,39.6z"/>
				<path class="st1" d="M128.3,40.3v-0.9l3.2,0v2.9c-0.5,0.4-1,0.7-1.5,0.9c-0.5,0.2-1.1,0.3-1.6,0.3c-0.7,0-1.4-0.2-2-0.5
					c-0.6-0.3-1.1-0.8-1.4-1.4s-0.5-1.3-0.5-2c0-0.7,0.2-1.4,0.5-2.1c0.3-0.6,0.7-1.1,1.3-1.4s1.2-0.5,2-0.5c0.5,0,1,0.1,1.5,0.3
					c0.4,0.2,0.8,0.4,1,0.8c0.2,0.3,0.4,0.7,0.6,1.3l-0.9,0.3c-0.1-0.4-0.3-0.7-0.4-0.9c-0.2-0.2-0.4-0.4-0.7-0.5
					c-0.3-0.1-0.7-0.2-1-0.2c-0.5,0-0.8,0.1-1.2,0.2s-0.6,0.3-0.8,0.6c-0.2,0.2-0.4,0.5-0.5,0.8c-0.2,0.5-0.3,1-0.3,1.5
					c0,0.7,0.1,1.3,0.3,1.7c0.2,0.5,0.6,0.8,1,1c0.4,0.2,0.9,0.3,1.4,0.3c0.4,0,0.9-0.1,1.3-0.3c0.4-0.2,0.7-0.4,0.9-0.5v-1.4H128.3
					z"/>
				<path class="st1" d="M134,43.3l2.9-7.7h1.1l3.1,7.7h-1.1l-0.9-2.3h-3.1l-0.8,2.3H134z M136.2,40.2h2.6l-0.8-2.1
					c-0.2-0.6-0.4-1.2-0.5-1.6c-0.1,0.5-0.2,1-0.4,1.5L136.2,40.2z"/>
				<path class="st1" d="M143.8,43.3v-7.7h2.6c0.6,0,1,0,1.3,0.1c0.4,0.1,0.8,0.3,1.1,0.6c0.4,0.3,0.7,0.8,0.9,1.3
					c0.2,0.5,0.3,1.1,0.3,1.8c0,0.6-0.1,1.1-0.2,1.6c-0.1,0.5-0.3,0.8-0.5,1.1s-0.4,0.5-0.7,0.7c-0.2,0.2-0.5,0.3-0.9,0.4
					c-0.4,0.1-0.8,0.1-1.2,0.1H143.8z M144.8,42.4h1.6c0.5,0,0.9,0,1.2-0.1c0.3-0.1,0.5-0.2,0.7-0.4c0.2-0.2,0.4-0.6,0.6-1
					c0.1-0.4,0.2-0.9,0.2-1.5c0-0.8-0.1-1.4-0.4-1.9c-0.3-0.4-0.6-0.7-0.9-0.9c-0.3-0.1-0.7-0.2-1.3-0.2h-1.6V42.4z"/>
				<path class="st1" d="M152.9,39.6c0-1.3,0.3-2.3,1-3c0.7-0.7,1.5-1.1,2.6-1.1c0.7,0,1.3,0.2,1.9,0.5c0.6,0.3,1,0.8,1.3,1.4
					s0.4,1.3,0.4,2.1c0,0.8-0.2,1.5-0.5,2.1c-0.3,0.6-0.7,1.1-1.3,1.4c-0.6,0.3-1.2,0.5-1.8,0.5c-0.7,0-1.3-0.2-1.9-0.5
					c-0.6-0.3-1-0.8-1.3-1.4C153.1,40.9,152.9,40.3,152.9,39.6z M154,39.6c0,0.9,0.2,1.7,0.7,2.2c0.5,0.5,1.1,0.8,1.8,0.8
					c0.7,0,1.4-0.3,1.9-0.8c0.5-0.5,0.7-1.3,0.7-2.3c0-0.6-0.1-1.2-0.3-1.6c-0.2-0.5-0.5-0.8-0.9-1.1c-0.4-0.3-0.8-0.4-1.3-0.4
					c-0.7,0-1.3,0.2-1.8,0.7C154.2,37.6,154,38.5,154,39.6z"/>
				<path class="st1" d="M163,40.9l0.9-0.1c0,0.4,0.1,0.7,0.3,0.9c0.2,0.2,0.4,0.4,0.8,0.6c0.3,0.2,0.7,0.2,1.2,0.2
					c0.4,0,0.7-0.1,1-0.2c0.3-0.1,0.5-0.3,0.6-0.5c0.1-0.2,0.2-0.4,0.2-0.7c0-0.2-0.1-0.5-0.2-0.6c-0.1-0.2-0.4-0.3-0.7-0.5
					c-0.2-0.1-0.6-0.2-1.3-0.4c-0.7-0.2-1.2-0.3-1.5-0.5c-0.4-0.2-0.6-0.4-0.8-0.7s-0.3-0.6-0.3-1c0-0.4,0.1-0.8,0.3-1.1
					c0.2-0.3,0.5-0.6,0.9-0.8c0.4-0.2,0.9-0.3,1.4-0.3c0.6,0,1,0.1,1.5,0.3c0.4,0.2,0.8,0.5,1,0.8s0.4,0.8,0.4,1.2l-1,0.1
					c-0.1-0.5-0.2-0.9-0.5-1.1c-0.3-0.2-0.7-0.4-1.3-0.4c-0.6,0-1,0.1-1.3,0.3c-0.3,0.2-0.4,0.5-0.4,0.8c0,0.3,0.1,0.5,0.3,0.7
					c0.2,0.2,0.7,0.4,1.5,0.5c0.8,0.2,1.4,0.4,1.7,0.5c0.4,0.2,0.8,0.5,1,0.8c0.2,0.3,0.3,0.7,0.3,1.1c0,0.4-0.1,0.8-0.3,1.2
					c-0.2,0.4-0.6,0.6-1,0.8c-0.4,0.2-0.9,0.3-1.5,0.3c-0.7,0-1.3-0.1-1.7-0.3c-0.5-0.2-0.8-0.5-1.1-0.9
					C163.1,41.8,163,41.4,163,40.9z"/>
			</g>
		</g>
		<path class="st0" d="M83.8,39.4c0-0.8-0.7-1.4-1.6-1.3L7,39.4l75.2,1.3C83,40.7,83.8,40.1,83.8,39.4L83.8,39.4z"/>
		<path class="st0" d="M181.2,39.4c0-0.8,0.7-1.4,1.6-1.3l75.2,1.3l-75.2,1.3C182,40.7,181.2,40.1,181.2,39.4L181.2,39.4z"/>
	</g>
</g>
</svg>
